<mxfile host="app.diagrams.net" modified="2024-07-17T16:06:47.372Z" agent="Mozilla/5.0 (Windows NT 10.0; Win64; x64) AppleWebKit/537.36 (KHTML, like Gecko) Chrome/126.0.0.0 Safari/537.36" etag="qgDuhIYZv2oNQtRy9qxK" version="24.7.0" type="github">
  <diagram id="R2lEEEUBdFMjLlhIrx00" name="Page-1">
    <mxGraphModel dx="2532" dy="1215" grid="0" gridSize="10" guides="0" tooltips="1" connect="1" arrows="1" fold="1" page="1" pageScale="1" pageWidth="10000" pageHeight="10000" math="0" shadow="0" extFonts="Permanent Marker^https://fonts.googleapis.com/css?family=Permanent+Marker">
      <root>
        <mxCell id="0" />
        <mxCell id="1" parent="0" />
        <mxCell id="sM5seYUYF9-TsOFURJws-17" value="Data Objects" style="swimlane;whiteSpace=wrap;html=1;sketch=1;hachureGap=4;jiggle=2;curveFitting=1;strokeColor=#6c8ebf;fontFamily=Architects Daughter;fontSource=https%3A%2F%2Ffonts.googleapis.com%2Fcss%3Ffamily%3DArchitects%2BDaughter;fontSize=20;fillColor=#dae8fc;startSize=34;" parent="1" vertex="1">
          <mxGeometry x="149" y="198" width="1412" height="1423" as="geometry" />
        </mxCell>
        <mxCell id="pfoFcTRtM2cgHrAYwK6Y-29" value="Scriptable Objects" style="swimlane;whiteSpace=wrap;html=1;sketch=1;hachureGap=4;jiggle=2;curveFitting=1;strokeColor=#E07A5F;fontFamily=Architects Daughter;fontSource=https%3A%2F%2Ffonts.googleapis.com%2Fcss%3Ffamily%3DArchitects%2BDaughter;fontSize=16;fontColor=#393C56;fillColor=#F2CC8F;labelBackgroundColor=none;dashed=1;dashPattern=1 4;" parent="sM5seYUYF9-TsOFURJws-17" vertex="1">
          <mxGeometry x="45" y="53" width="312" height="1317" as="geometry" />
        </mxCell>
        <mxCell id="o8G2fhGUsHrwVTccI_8I-12" value="&lt;font style=&quot;font-size: 16px;&quot;&gt;LevelData : SO&lt;/font&gt;" style="swimlane;fontStyle=0;childLayout=stackLayout;horizontal=1;startSize=26;fillColor=none;horizontalStack=0;resizeParent=1;resizeParentMax=0;resizeLast=0;collapsible=1;marginBottom=0;whiteSpace=wrap;html=1;sketch=1;hachureGap=4;jiggle=2;curveFitting=1;fontFamily=Architects Daughter;fontSource=https%3A%2F%2Ffonts.googleapis.com%2Fcss%3Ffamily%3DArchitects%2BDaughter;fontSize=16;labelBackgroundColor=none;strokeColor=#E07A5F;fontColor=#393C56;" parent="pfoFcTRtM2cgHrAYwK6Y-29" vertex="1">
          <mxGeometry x="25" y="55" width="230" height="52" as="geometry" />
        </mxCell>
        <mxCell id="o8G2fhGUsHrwVTccI_8I-14" value="+Waves : List&amp;lt;WaveData&amp;gt;" style="text;strokeColor=none;fillColor=none;align=left;verticalAlign=top;spacingLeft=4;spacingRight=4;overflow=hidden;rotatable=0;points=[[0,0.5],[1,0.5]];portConstraint=eastwest;whiteSpace=wrap;html=1;fontSize=10;fontFamily=Architects Daughter;labelBackgroundColor=none;fontColor=#393C56;sketch=1;curveFitting=1;jiggle=2;" parent="o8G2fhGUsHrwVTccI_8I-12" vertex="1">
          <mxGeometry y="26" width="230" height="26" as="geometry" />
        </mxCell>
        <mxCell id="o8G2fhGUsHrwVTccI_8I-27" value="EnemyData : SO" style="swimlane;fontStyle=0;childLayout=stackLayout;horizontal=1;startSize=26;fillColor=none;horizontalStack=0;resizeParent=1;resizeParentMax=0;resizeLast=0;collapsible=1;marginBottom=0;whiteSpace=wrap;html=1;sketch=1;hachureGap=4;jiggle=2;curveFitting=1;fontFamily=Architects Daughter;fontSource=https%3A%2F%2Ffonts.googleapis.com%2Fcss%3Ffamily%3DArchitects%2BDaughter;fontSize=16;labelBackgroundColor=none;strokeColor=#E07A5F;fontColor=#393C56;" parent="pfoFcTRtM2cgHrAYwK6Y-29" vertex="1">
          <mxGeometry x="22" y="443" width="230" height="104" as="geometry" />
        </mxCell>
        <mxCell id="o8G2fhGUsHrwVTccI_8I-28" value="+Speed : float" style="text;strokeColor=none;fillColor=none;align=left;verticalAlign=top;spacingLeft=4;spacingRight=4;overflow=hidden;rotatable=0;points=[[0,0.5],[1,0.5]];portConstraint=eastwest;whiteSpace=wrap;html=1;fontSize=10;fontFamily=Architects Daughter;labelBackgroundColor=none;fontColor=#393C56;sketch=1;curveFitting=1;jiggle=2;" parent="o8G2fhGUsHrwVTccI_8I-27" vertex="1">
          <mxGeometry y="26" width="230" height="26" as="geometry" />
        </mxCell>
        <mxCell id="o8G2fhGUsHrwVTccI_8I-29" value="+Health : short" style="text;strokeColor=none;fillColor=none;align=left;verticalAlign=top;spacingLeft=4;spacingRight=4;overflow=hidden;rotatable=0;points=[[0,0.5],[1,0.5]];portConstraint=eastwest;whiteSpace=wrap;html=1;fontSize=10;fontFamily=Architects Daughter;labelBackgroundColor=none;fontColor=#393C56;sketch=1;curveFitting=1;jiggle=2;" parent="o8G2fhGUsHrwVTccI_8I-27" vertex="1">
          <mxGeometry y="52" width="230" height="26" as="geometry" />
        </mxCell>
        <mxCell id="U2Sg24MLAsKOgwwXVquy-18" value="+Armor : float" style="text;strokeColor=none;fillColor=none;align=left;verticalAlign=top;spacingLeft=4;spacingRight=4;overflow=hidden;rotatable=0;points=[[0,0.5],[1,0.5]];portConstraint=eastwest;whiteSpace=wrap;html=1;fontSize=10;fontFamily=Architects Daughter;labelBackgroundColor=none;fontColor=#393C56;sketch=1;curveFitting=1;jiggle=2;" parent="o8G2fhGUsHrwVTccI_8I-27" vertex="1">
          <mxGeometry y="78" width="230" height="26" as="geometry" />
        </mxCell>
        <mxCell id="U2Sg24MLAsKOgwwXVquy-1" value="&lt;font style=&quot;font-size: 16px;&quot;&gt;BuildingData : SO&lt;/font&gt;" style="swimlane;fontStyle=0;childLayout=stackLayout;horizontal=1;startSize=26;fillColor=none;horizontalStack=0;resizeParent=1;resizeParentMax=0;resizeLast=0;collapsible=1;marginBottom=0;whiteSpace=wrap;html=1;sketch=1;hachureGap=4;jiggle=2;curveFitting=1;fontFamily=Architects Daughter;fontSource=https%3A%2F%2Ffonts.googleapis.com%2Fcss%3Ffamily%3DArchitects%2BDaughter;fontSize=16;labelBackgroundColor=none;strokeColor=#E07A5F;fontColor=#393C56;" parent="pfoFcTRtM2cgHrAYwK6Y-29" vertex="1">
          <mxGeometry x="22" y="610" width="230" height="130" as="geometry" />
        </mxCell>
        <mxCell id="U2Sg24MLAsKOgwwXVquy-3" value="+Name : string" style="text;strokeColor=none;fillColor=none;align=left;verticalAlign=top;spacingLeft=4;spacingRight=4;overflow=hidden;rotatable=0;points=[[0,0.5],[1,0.5]];portConstraint=eastwest;whiteSpace=wrap;html=1;fontSize=10;fontFamily=Architects Daughter;labelBackgroundColor=none;fontColor=#393C56;sketch=1;curveFitting=1;jiggle=2;" parent="U2Sg24MLAsKOgwwXVquy-1" vertex="1">
          <mxGeometry y="26" width="230" height="26" as="geometry" />
        </mxCell>
        <mxCell id="U2Sg24MLAsKOgwwXVquy-4" value="+Type : BuildingType (enum)" style="text;strokeColor=none;fillColor=none;align=left;verticalAlign=top;spacingLeft=4;spacingRight=4;overflow=hidden;rotatable=0;points=[[0,0.5],[1,0.5]];portConstraint=eastwest;whiteSpace=wrap;html=1;fontSize=10;fontFamily=Architects Daughter;labelBackgroundColor=none;fontColor=#393C56;sketch=1;curveFitting=1;jiggle=2;" parent="U2Sg24MLAsKOgwwXVquy-1" vertex="1">
          <mxGeometry y="52" width="230" height="26" as="geometry" />
        </mxCell>
        <mxCell id="U2Sg24MLAsKOgwwXVquy-19" value="+Price : short" style="text;strokeColor=none;fillColor=none;align=left;verticalAlign=top;spacingLeft=4;spacingRight=4;overflow=hidden;rotatable=0;points=[[0,0.5],[1,0.5]];portConstraint=eastwest;whiteSpace=wrap;html=1;fontSize=10;fontFamily=Architects Daughter;labelBackgroundColor=none;fontColor=#393C56;sketch=1;curveFitting=1;jiggle=2;" parent="U2Sg24MLAsKOgwwXVquy-1" vertex="1">
          <mxGeometry y="78" width="230" height="26" as="geometry" />
        </mxCell>
        <mxCell id="6UFjZa_Qjo73gYVkkpTL-59" value="+EffectDefinitions : List&amp;lt;EffectDefinition&amp;gt;" style="text;strokeColor=none;fillColor=none;align=left;verticalAlign=top;spacingLeft=4;spacingRight=4;overflow=hidden;rotatable=0;points=[[0,0.5],[1,0.5]];portConstraint=eastwest;whiteSpace=wrap;html=1;fontSize=10;fontFamily=Architects Daughter;labelBackgroundColor=none;fontColor=#393C56;sketch=1;curveFitting=1;jiggle=2;" parent="U2Sg24MLAsKOgwwXVquy-1" vertex="1">
          <mxGeometry y="104" width="230" height="26" as="geometry" />
        </mxCell>
        <mxCell id="pfoFcTRtM2cgHrAYwK6Y-30" value="Classes / Structs / Enums" style="swimlane;whiteSpace=wrap;html=1;sketch=1;hachureGap=4;jiggle=2;curveFitting=1;strokeColor=#10739e;fontFamily=Architects Daughter;fontSource=https%3A%2F%2Ffonts.googleapis.com%2Fcss%3Ffamily%3DArchitects%2BDaughter;fontSize=16;fillColor=#b1ddf0;labelBackgroundColor=none;dashed=1;dashPattern=1 4;" parent="sM5seYUYF9-TsOFURJws-17" vertex="1">
          <mxGeometry x="435" y="51" width="536" height="1318" as="geometry" />
        </mxCell>
        <mxCell id="o8G2fhGUsHrwVTccI_8I-22" value="WaveData (S)" style="swimlane;fontStyle=0;childLayout=stackLayout;horizontal=1;startSize=26;horizontalStack=0;resizeParent=1;resizeParentMax=0;resizeLast=0;collapsible=1;marginBottom=0;whiteSpace=wrap;html=1;sketch=1;hachureGap=4;jiggle=2;curveFitting=1;fontFamily=Architects Daughter;fontSource=https%3A%2F%2Ffonts.googleapis.com%2Fcss%3Ffamily%3DArchitects%2BDaughter;fontSize=16;labelBackgroundColor=none;fillColor=#b1ddf0;strokeColor=#10739e;" parent="pfoFcTRtM2cgHrAYwK6Y-30" vertex="1">
          <mxGeometry x="44" y="164" width="230" height="78" as="geometry" />
        </mxCell>
        <mxCell id="o8G2fhGUsHrwVTccI_8I-23" value="+StartCoolDownFromLastWave : int" style="text;strokeColor=none;fillColor=none;align=left;verticalAlign=top;spacingLeft=4;spacingRight=4;overflow=hidden;rotatable=0;points=[[0,0.5],[1,0.5]];portConstraint=eastwest;whiteSpace=wrap;html=1;fontSize=10;fontFamily=Architects Daughter;labelBackgroundColor=none;fontColor=#393C56;sketch=1;curveFitting=1;jiggle=2;" parent="o8G2fhGUsHrwVTccI_8I-22" vertex="1">
          <mxGeometry y="26" width="230" height="26" as="geometry" />
        </mxCell>
        <mxCell id="o8G2fhGUsHrwVTccI_8I-24" value="+Enemies : List&amp;lt;EnemyWaveData&amp;gt;" style="text;strokeColor=none;fillColor=none;align=left;verticalAlign=top;spacingLeft=4;spacingRight=4;overflow=hidden;rotatable=0;points=[[0,0.5],[1,0.5]];portConstraint=eastwest;whiteSpace=wrap;html=1;fontSize=10;fontFamily=Architects Daughter;labelBackgroundColor=none;fontColor=#393C56;sketch=1;curveFitting=1;jiggle=2;" parent="o8G2fhGUsHrwVTccI_8I-22" vertex="1">
          <mxGeometry y="52" width="230" height="26" as="geometry" />
        </mxCell>
        <mxCell id="o8G2fhGUsHrwVTccI_8I-30" style="edgeStyle=orthogonalEdgeStyle;rounded=0;sketch=1;hachureGap=4;jiggle=2;curveFitting=1;orthogonalLoop=1;jettySize=auto;html=1;exitX=1;exitY=0.5;exitDx=0;exitDy=0;fontFamily=Architects Daughter;fontSource=https%3A%2F%2Ffonts.googleapis.com%2Fcss%3Ffamily%3DArchitects%2BDaughter;fontSize=16;entryX=0.522;entryY=-0.023;entryDx=0;entryDy=0;entryPerimeter=0;labelBackgroundColor=none;strokeColor=none;fontColor=default;" parent="pfoFcTRtM2cgHrAYwK6Y-30" source="o8G2fhGUsHrwVTccI_8I-24" target="o8G2fhGUsHrwVTccI_8I-31" edge="1">
          <mxGeometry relative="1" as="geometry" />
        </mxCell>
        <mxCell id="o8G2fhGUsHrwVTccI_8I-31" value="EnemyWaveData&amp;nbsp;(S)" style="swimlane;fontStyle=0;childLayout=stackLayout;horizontal=1;startSize=26;horizontalStack=0;resizeParent=1;resizeParentMax=0;resizeLast=0;collapsible=1;marginBottom=0;whiteSpace=wrap;html=1;sketch=1;hachureGap=4;jiggle=2;curveFitting=1;fontFamily=Architects Daughter;fontSource=https%3A%2F%2Ffonts.googleapis.com%2Fcss%3Ffamily%3DArchitects%2BDaughter;fontSize=16;labelBackgroundColor=none;fillColor=#b1ddf0;strokeColor=#10739e;" parent="pfoFcTRtM2cgHrAYwK6Y-30" vertex="1">
          <mxGeometry x="44" y="294" width="230" height="52" as="geometry" />
        </mxCell>
        <mxCell id="o8G2fhGUsHrwVTccI_8I-33" value="+Enemy : EnemyData" style="text;strokeColor=none;fillColor=none;align=left;verticalAlign=top;spacingLeft=4;spacingRight=4;overflow=hidden;rotatable=0;points=[[0,0.5],[1,0.5]];portConstraint=eastwest;whiteSpace=wrap;html=1;fontSize=10;fontFamily=Architects Daughter;labelBackgroundColor=none;fontColor=#393C56;sketch=1;curveFitting=1;jiggle=2;" parent="o8G2fhGUsHrwVTccI_8I-31" vertex="1">
          <mxGeometry y="26" width="230" height="26" as="geometry" />
        </mxCell>
        <mxCell id="U2Sg24MLAsKOgwwXVquy-9" value="&lt;font style=&quot;font-size: 9px;&quot;&gt;BuildingType : &lt;b&gt;enum&lt;/b&gt;&lt;/font&gt;" style="swimlane;fontStyle=0;childLayout=stackLayout;horizontal=1;startSize=26;horizontalStack=0;resizeParent=1;resizeParentMax=0;resizeLast=0;collapsible=1;marginBottom=0;whiteSpace=wrap;html=1;sketch=1;hachureGap=4;jiggle=2;curveFitting=1;fontFamily=Architects Daughter;fontSource=https%3A%2F%2Ffonts.googleapis.com%2Fcss%3Ffamily%3DArchitects%2BDaughter;fontSize=16;labelBackgroundColor=none;fillColor=#b1ddf0;strokeColor=#10739e;" parent="pfoFcTRtM2cgHrAYwK6Y-30" vertex="1">
          <mxGeometry x="338" y="386" width="123" height="130" as="geometry" />
        </mxCell>
        <mxCell id="U2Sg24MLAsKOgwwXVquy-10" value="Gun" style="text;strokeColor=none;fillColor=none;align=center;verticalAlign=top;spacingLeft=4;spacingRight=4;overflow=hidden;rotatable=0;points=[[0,0.5],[1,0.5]];portConstraint=eastwest;whiteSpace=wrap;html=1;fontSize=10;fontFamily=Architects Daughter;labelBackgroundColor=none;fontColor=#393C56;sketch=1;curveFitting=1;jiggle=2;" parent="U2Sg24MLAsKOgwwXVquy-9" vertex="1">
          <mxGeometry y="26" width="123" height="26" as="geometry" />
        </mxCell>
        <mxCell id="U2Sg24MLAsKOgwwXVquy-14" value="Rocket" style="text;strokeColor=none;fillColor=none;align=center;verticalAlign=top;spacingLeft=4;spacingRight=4;overflow=hidden;rotatable=0;points=[[0,0.5],[1,0.5]];portConstraint=eastwest;whiteSpace=wrap;html=1;fontSize=10;fontFamily=Architects Daughter;labelBackgroundColor=none;fontColor=#393C56;sketch=1;curveFitting=1;jiggle=2;" parent="U2Sg24MLAsKOgwwXVquy-9" vertex="1">
          <mxGeometry y="52" width="123" height="26" as="geometry" />
        </mxCell>
        <mxCell id="U2Sg24MLAsKOgwwXVquy-15" value="Electric" style="text;strokeColor=none;fillColor=none;align=center;verticalAlign=top;spacingLeft=4;spacingRight=4;overflow=hidden;rotatable=0;points=[[0,0.5],[1,0.5]];portConstraint=eastwest;whiteSpace=wrap;html=1;fontSize=10;fontFamily=Architects Daughter;labelBackgroundColor=none;fontColor=#393C56;sketch=1;curveFitting=1;jiggle=2;" parent="U2Sg24MLAsKOgwwXVquy-9" vertex="1">
          <mxGeometry y="78" width="123" height="26" as="geometry" />
        </mxCell>
        <mxCell id="U2Sg24MLAsKOgwwXVquy-16" value="Ice" style="text;strokeColor=none;fillColor=none;align=center;verticalAlign=top;spacingLeft=4;spacingRight=4;overflow=hidden;rotatable=0;points=[[0,0.5],[1,0.5]];portConstraint=eastwest;whiteSpace=wrap;html=1;fontSize=10;fontFamily=Architects Daughter;labelBackgroundColor=none;fontColor=#393C56;sketch=1;curveFitting=1;jiggle=2;" parent="U2Sg24MLAsKOgwwXVquy-9" vertex="1">
          <mxGeometry y="104" width="123" height="26" as="geometry" />
        </mxCell>
        <mxCell id="pfoFcTRtM2cgHrAYwK6Y-17" style="edgeStyle=orthogonalEdgeStyle;rounded=0;sketch=1;hachureGap=4;jiggle=2;curveFitting=1;orthogonalLoop=1;jettySize=auto;html=1;exitX=0;exitY=0.5;exitDx=0;exitDy=0;entryX=0;entryY=0.25;entryDx=0;entryDy=0;strokeColor=#666666;fontFamily=Architects Daughter;fontSource=https%3A%2F%2Ffonts.googleapis.com%2Fcss%3Ffamily%3DArchitects%2BDaughter;fontSize=16;fontColor=default;endArrow=open;startSize=14;endSize=14;sourcePerimeterSpacing=8;targetPerimeterSpacing=8;fillColor=#f5f5f5;labelBackgroundColor=none;gradientColor=#b3b3b3;" parent="pfoFcTRtM2cgHrAYwK6Y-30" source="o8G2fhGUsHrwVTccI_8I-24" target="o8G2fhGUsHrwVTccI_8I-31" edge="1">
          <mxGeometry relative="1" as="geometry" />
        </mxCell>
        <mxCell id="6UFjZa_Qjo73gYVkkpTL-41" value="Effect Definitions" style="swimlane;whiteSpace=wrap;html=1;hachureGap=4;strokeColor=#10739e;fontFamily=Architects Daughter;fontSource=https%3A%2F%2Ffonts.googleapis.com%2Fcss%3Ffamily%3DArchitects%2BDaughter;fontSize=16;fillColor=#b1ddf0;labelBackgroundColor=none;dashed=1;dashPattern=1 4;glass=0;swimlaneLine=0;rounded=0;shadow=0;sketch=1;curveFitting=1;jiggle=2;" parent="pfoFcTRtM2cgHrAYwK6Y-30" vertex="1">
          <mxGeometry x="42" y="541" width="354" height="465" as="geometry" />
        </mxCell>
        <mxCell id="6UFjZa_Qjo73gYVkkpTL-36" value="&lt;font style=&quot;font-size: 13px;&quot;&gt;DamageDefinition : EffectDefinition&lt;/font&gt;" style="swimlane;fontStyle=0;childLayout=stackLayout;horizontal=1;startSize=26;horizontalStack=0;resizeParent=1;resizeParentMax=0;resizeLast=0;collapsible=1;marginBottom=0;whiteSpace=wrap;html=1;sketch=1;hachureGap=4;jiggle=2;curveFitting=1;fontFamily=Architects Daughter;fontSource=https%3A%2F%2Ffonts.googleapis.com%2Fcss%3Ffamily%3DArchitects%2BDaughter;fontSize=16;labelBackgroundColor=none;fillColor=#b1ddf0;strokeColor=#10739e;" parent="6UFjZa_Qjo73gYVkkpTL-41" vertex="1">
          <mxGeometry x="10" y="36" width="262" height="104" as="geometry" />
        </mxCell>
        <mxCell id="6UFjZa_Qjo73gYVkkpTL-37" value="+Damage : int" style="text;strokeColor=none;fillColor=none;align=left;verticalAlign=top;spacingLeft=4;spacingRight=4;overflow=hidden;rotatable=0;points=[[0,0.5],[1,0.5]];portConstraint=eastwest;whiteSpace=wrap;html=1;fontSize=10;fontFamily=Architects Daughter;labelBackgroundColor=none;fontColor=#393C56;sketch=1;curveFitting=1;jiggle=2;" parent="6UFjZa_Qjo73gYVkkpTL-36" vertex="1">
          <mxGeometry y="26" width="262" height="26" as="geometry" />
        </mxCell>
        <mxCell id="6UFjZa_Qjo73gYVkkpTL-38" value="+FireRate : float" style="text;strokeColor=none;fillColor=none;align=left;verticalAlign=top;spacingLeft=4;spacingRight=4;overflow=hidden;rotatable=0;points=[[0,0.5],[1,0.5]];portConstraint=eastwest;whiteSpace=wrap;html=1;fontSize=10;fontFamily=Architects Daughter;labelBackgroundColor=none;fontColor=#393C56;sketch=1;curveFitting=1;jiggle=2;" parent="6UFjZa_Qjo73gYVkkpTL-36" vertex="1">
          <mxGeometry y="52" width="262" height="26" as="geometry" />
        </mxCell>
        <mxCell id="6UFjZa_Qjo73gYVkkpTL-42" value="+FireSpeed : float" style="text;strokeColor=none;fillColor=none;align=left;verticalAlign=top;spacingLeft=4;spacingRight=4;overflow=hidden;rotatable=0;points=[[0,0.5],[1,0.5]];portConstraint=eastwest;whiteSpace=wrap;html=1;fontSize=10;fontFamily=Architects Daughter;labelBackgroundColor=none;fontColor=#393C56;sketch=1;curveFitting=1;jiggle=2;" parent="6UFjZa_Qjo73gYVkkpTL-36" vertex="1">
          <mxGeometry y="78" width="262" height="26" as="geometry" />
        </mxCell>
        <mxCell id="6UFjZa_Qjo73gYVkkpTL-43" value="&lt;font style=&quot;font-size: 13px;&quot;&gt;AreaDamageDefinition :&amp;nbsp;&lt;/font&gt;&lt;span style=&quot;font-size: 13px;&quot;&gt;DamageDefinition&amp;nbsp;&lt;/span&gt;" style="swimlane;fontStyle=0;childLayout=stackLayout;horizontal=1;startSize=26;horizontalStack=0;resizeParent=1;resizeParentMax=0;resizeLast=0;collapsible=1;marginBottom=0;whiteSpace=wrap;html=1;sketch=1;hachureGap=4;jiggle=2;curveFitting=1;fontFamily=Architects Daughter;fontSource=https%3A%2F%2Ffonts.googleapis.com%2Fcss%3Ffamily%3DArchitects%2BDaughter;fontSize=16;labelBackgroundColor=none;fillColor=#b1ddf0;strokeColor=#10739e;" parent="6UFjZa_Qjo73gYVkkpTL-41" vertex="1">
          <mxGeometry x="24" y="158" width="283" height="52" as="geometry" />
        </mxCell>
        <mxCell id="6UFjZa_Qjo73gYVkkpTL-46" value="+EffectRadius : float" style="text;strokeColor=none;fillColor=none;align=left;verticalAlign=top;spacingLeft=4;spacingRight=4;overflow=hidden;rotatable=0;points=[[0,0.5],[1,0.5]];portConstraint=eastwest;whiteSpace=wrap;html=1;fontSize=10;fontFamily=Architects Daughter;labelBackgroundColor=none;fontColor=#393C56;sketch=1;curveFitting=1;jiggle=2;" parent="6UFjZa_Qjo73gYVkkpTL-43" vertex="1">
          <mxGeometry y="26" width="283" height="26" as="geometry" />
        </mxCell>
        <mxCell id="6UFjZa_Qjo73gYVkkpTL-47" style="edgeStyle=orthogonalEdgeStyle;shape=connector;rounded=0;sketch=1;hachureGap=4;jiggle=2;curveFitting=1;orthogonalLoop=1;jettySize=auto;html=1;entryX=1;entryY=0.25;entryDx=0;entryDy=0;strokeColor=#666666;align=center;verticalAlign=middle;fontFamily=Architects Daughter;fontSource=https%3A%2F%2Ffonts.googleapis.com%2Fcss%3Ffamily%3DArchitects%2BDaughter;fontSize=16;fontColor=#393C56;fontStyle=1;labelBackgroundColor=none;startSize=14;endArrow=block;endSize=14;sourcePerimeterSpacing=8;targetPerimeterSpacing=8;exitX=1;exitY=0.5;exitDx=0;exitDy=0;fillColor=#f5f5f5;gradientColor=#b3b3b3;endFill=0;dashed=1;" parent="6UFjZa_Qjo73gYVkkpTL-41" source="6UFjZa_Qjo73gYVkkpTL-36" target="6UFjZa_Qjo73gYVkkpTL-43" edge="1">
          <mxGeometry relative="1" as="geometry">
            <mxPoint x="319.096" y="180.856" as="targetPoint" />
            <Array as="points">
              <mxPoint x="341" y="88" />
              <mxPoint x="341" y="171" />
            </Array>
          </mxGeometry>
        </mxCell>
        <mxCell id="Ik0o9rOlxrH9gnlxq-DT-129" value="implementetion" style="edgeLabel;html=1;align=center;verticalAlign=middle;resizable=0;points=[];sketch=1;hachureGap=4;jiggle=2;curveFitting=1;strokeColor=#4F6E3F;fontFamily=Architects Daughter;fontSource=https%3A%2F%2Ffonts.googleapis.com%2Fcss%3Ffamily%3DArchitects%2BDaughter;fontSize=16;fontColor=#393C56;fontStyle=1;labelBackgroundColor=none;fillColor=#d5e8d4;" vertex="1" connectable="0" parent="6UFjZa_Qjo73gYVkkpTL-47">
          <mxGeometry x="-0.0876" relative="1" as="geometry">
            <mxPoint y="1" as="offset" />
          </mxGeometry>
        </mxCell>
        <mxCell id="6UFjZa_Qjo73gYVkkpTL-48" value="&lt;font style=&quot;font-size: 12px;&quot;&gt;DamageOverTimeDefinition : EffectDefinition&lt;/font&gt;" style="swimlane;fontStyle=0;childLayout=stackLayout;horizontal=1;startSize=26;horizontalStack=0;resizeParent=1;resizeParentMax=0;resizeLast=0;collapsible=1;marginBottom=0;whiteSpace=wrap;html=1;sketch=1;hachureGap=4;jiggle=2;curveFitting=1;fontFamily=Architects Daughter;fontSource=https%3A%2F%2Ffonts.googleapis.com%2Fcss%3Ffamily%3DArchitects%2BDaughter;fontSize=16;labelBackgroundColor=none;fillColor=#b1ddf0;strokeColor=#10739e;" parent="6UFjZa_Qjo73gYVkkpTL-41" vertex="1">
          <mxGeometry x="10" y="237" width="281" height="78" as="geometry" />
        </mxCell>
        <mxCell id="6UFjZa_Qjo73gYVkkpTL-49" value="+DamagePerSecond : int" style="text;strokeColor=none;fillColor=none;align=left;verticalAlign=top;spacingLeft=4;spacingRight=4;overflow=hidden;rotatable=0;points=[[0,0.5],[1,0.5]];portConstraint=eastwest;whiteSpace=wrap;html=1;fontSize=10;fontFamily=Architects Daughter;labelBackgroundColor=none;fontColor=#393C56;sketch=1;curveFitting=1;jiggle=2;" parent="6UFjZa_Qjo73gYVkkpTL-48" vertex="1">
          <mxGeometry y="26" width="281" height="26" as="geometry" />
        </mxCell>
        <mxCell id="6UFjZa_Qjo73gYVkkpTL-51" value="+MaxTargetCount" style="text;strokeColor=none;fillColor=none;align=left;verticalAlign=top;spacingLeft=4;spacingRight=4;overflow=hidden;rotatable=0;points=[[0,0.5],[1,0.5]];portConstraint=eastwest;whiteSpace=wrap;html=1;fontSize=10;fontFamily=Architects Daughter;labelBackgroundColor=none;fontColor=#393C56;sketch=1;curveFitting=1;jiggle=2;" parent="6UFjZa_Qjo73gYVkkpTL-48" vertex="1">
          <mxGeometry y="52" width="281" height="26" as="geometry" />
        </mxCell>
        <mxCell id="6UFjZa_Qjo73gYVkkpTL-52" value="&lt;font style=&quot;font-size: 12px;&quot;&gt;SlowEffectDefinition : EffectDefinition&lt;/font&gt;" style="swimlane;fontStyle=0;childLayout=stackLayout;horizontal=1;startSize=26;horizontalStack=0;resizeParent=1;resizeParentMax=0;resizeLast=0;collapsible=1;marginBottom=0;whiteSpace=wrap;html=1;sketch=1;hachureGap=4;jiggle=2;curveFitting=1;fontFamily=Architects Daughter;fontSource=https%3A%2F%2Ffonts.googleapis.com%2Fcss%3Ffamily%3DArchitects%2BDaughter;fontSize=16;labelBackgroundColor=none;fillColor=#b1ddf0;strokeColor=#10739e;" parent="6UFjZa_Qjo73gYVkkpTL-41" vertex="1">
          <mxGeometry x="12" y="336" width="281" height="104" as="geometry" />
        </mxCell>
        <mxCell id="6UFjZa_Qjo73gYVkkpTL-53" value="+SpeedReduction : float" style="text;strokeColor=none;fillColor=none;align=left;verticalAlign=top;spacingLeft=4;spacingRight=4;overflow=hidden;rotatable=0;points=[[0,0.5],[1,0.5]];portConstraint=eastwest;whiteSpace=wrap;html=1;fontSize=10;fontFamily=Architects Daughter;labelBackgroundColor=none;fontColor=#393C56;sketch=1;curveFitting=1;jiggle=2;" parent="6UFjZa_Qjo73gYVkkpTL-52" vertex="1">
          <mxGeometry y="26" width="281" height="26" as="geometry" />
        </mxCell>
        <mxCell id="6UFjZa_Qjo73gYVkkpTL-56" value="+FireRate : float" style="text;strokeColor=none;fillColor=none;align=left;verticalAlign=top;spacingLeft=4;spacingRight=4;overflow=hidden;rotatable=0;points=[[0,0.5],[1,0.5]];portConstraint=eastwest;whiteSpace=wrap;html=1;fontSize=10;fontFamily=Architects Daughter;labelBackgroundColor=none;fontColor=#393C56;sketch=1;curveFitting=1;jiggle=2;" parent="6UFjZa_Qjo73gYVkkpTL-52" vertex="1">
          <mxGeometry y="52" width="281" height="26" as="geometry" />
        </mxCell>
        <mxCell id="6UFjZa_Qjo73gYVkkpTL-57" value="+FireSpeed : float" style="text;strokeColor=none;fillColor=none;align=left;verticalAlign=top;spacingLeft=4;spacingRight=4;overflow=hidden;rotatable=0;points=[[0,0.5],[1,0.5]];portConstraint=eastwest;whiteSpace=wrap;html=1;fontSize=10;fontFamily=Architects Daughter;labelBackgroundColor=none;fontColor=#393C56;sketch=1;curveFitting=1;jiggle=2;" parent="6UFjZa_Qjo73gYVkkpTL-52" vertex="1">
          <mxGeometry y="78" width="281" height="26" as="geometry" />
        </mxCell>
        <mxCell id="pfoFcTRtM2cgHrAYwK6Y-23" style="edgeStyle=orthogonalEdgeStyle;shape=connector;rounded=0;sketch=1;hachureGap=4;jiggle=2;curveFitting=1;orthogonalLoop=1;jettySize=auto;html=1;exitX=1;exitY=0.5;exitDx=0;exitDy=0;entryX=0.004;entryY=0.154;entryDx=0;entryDy=0;entryPerimeter=0;labelBackgroundColor=none;strokeColor=#666666;fontFamily=Architects Daughter;fontSource=https%3A%2F%2Ffonts.googleapis.com%2Fcss%3Ffamily%3DArchitects%2BDaughter;fontSize=16;fontColor=default;endArrow=open;startSize=14;endSize=14;sourcePerimeterSpacing=8;targetPerimeterSpacing=8;fillColor=#f5f5f5;gradientColor=#b3b3b3;" parent="sM5seYUYF9-TsOFURJws-17" source="o8G2fhGUsHrwVTccI_8I-14" target="o8G2fhGUsHrwVTccI_8I-22" edge="1">
          <mxGeometry relative="1" as="geometry" />
        </mxCell>
        <mxCell id="sM5seYUYF9-TsOFURJws-1" style="edgeStyle=orthogonalEdgeStyle;rounded=0;sketch=1;hachureGap=4;jiggle=2;curveFitting=1;orthogonalLoop=1;jettySize=auto;html=1;exitX=0;exitY=0.5;exitDx=0;exitDy=0;entryX=0.991;entryY=0.144;entryDx=0;entryDy=0;entryPerimeter=0;fontFamily=Architects Daughter;fontSource=https%3A%2F%2Ffonts.googleapis.com%2Fcss%3Ffamily%3DArchitects%2BDaughter;fontSize=16;endArrow=open;startSize=14;endSize=14;sourcePerimeterSpacing=8;targetPerimeterSpacing=8;labelBackgroundColor=none;strokeColor=#666666;fontColor=default;fillColor=#f5f5f5;gradientColor=#b3b3b3;" parent="sM5seYUYF9-TsOFURJws-17" source="o8G2fhGUsHrwVTccI_8I-33" target="o8G2fhGUsHrwVTccI_8I-27" edge="1">
          <mxGeometry relative="1" as="geometry">
            <Array as="points">
              <mxPoint x="319" y="384" />
              <mxPoint x="319" y="511" />
            </Array>
          </mxGeometry>
        </mxCell>
        <mxCell id="6UFjZa_Qjo73gYVkkpTL-10" value="Abstracts / Interfaces" style="swimlane;whiteSpace=wrap;html=1;sketch=1;hachureGap=4;jiggle=2;curveFitting=1;fontFamily=Architects Daughter;fontSource=https%3A%2F%2Ffonts.googleapis.com%2Fcss%3Ffamily%3DArchitects%2BDaughter;fontSize=16;fillColor=#d0cee2;labelBackgroundColor=none;dashed=1;dashPattern=1 4;strokeColor=#56517e;" parent="sM5seYUYF9-TsOFURJws-17" vertex="1">
          <mxGeometry x="1009" y="52" width="377" height="1315" as="geometry" />
        </mxCell>
        <mxCell id="6UFjZa_Qjo73gYVkkpTL-35" style="edgeStyle=orthogonalEdgeStyle;shape=connector;rounded=0;sketch=1;hachureGap=4;jiggle=2;curveFitting=1;orthogonalLoop=1;jettySize=auto;html=1;entryX=1;entryY=0.25;entryDx=0;entryDy=0;strokeColor=#666666;align=center;verticalAlign=middle;fontFamily=Architects Daughter;fontSource=https%3A%2F%2Ffonts.googleapis.com%2Fcss%3Ffamily%3DArchitects%2BDaughter;fontSize=16;fontColor=default;labelBackgroundColor=none;startSize=14;endArrow=open;endSize=14;sourcePerimeterSpacing=8;targetPerimeterSpacing=8;fillColor=#f5f5f5;gradientColor=#b3b3b3;" parent="6UFjZa_Qjo73gYVkkpTL-10" source="6UFjZa_Qjo73gYVkkpTL-30" target="6UFjZa_Qjo73gYVkkpTL-7" edge="1">
          <mxGeometry relative="1" as="geometry">
            <Array as="points">
              <mxPoint x="156" y="539" />
              <mxPoint x="347" y="539" />
              <mxPoint x="347" y="601" />
            </Array>
          </mxGeometry>
        </mxCell>
        <mxCell id="Ik0o9rOlxrH9gnlxq-DT-136" value="implementation" style="edgeLabel;html=1;align=center;verticalAlign=middle;resizable=0;points=[];sketch=1;hachureGap=4;jiggle=2;curveFitting=1;strokeColor=#4F6E3F;fontFamily=Architects Daughter;fontSource=https%3A%2F%2Ffonts.googleapis.com%2Fcss%3Ffamily%3DArchitects%2BDaughter;fontSize=16;fontColor=#393C56;fontStyle=1;labelBackgroundColor=none;fillColor=#d5e8d4;" vertex="1" connectable="0" parent="6UFjZa_Qjo73gYVkkpTL-35">
          <mxGeometry x="-0.2145" y="1" relative="1" as="geometry">
            <mxPoint as="offset" />
          </mxGeometry>
        </mxCell>
        <mxCell id="6UFjZa_Qjo73gYVkkpTL-30" value="IEffectDefinition : interface" style="swimlane;fontStyle=0;childLayout=stackLayout;horizontal=1;startSize=26;fillColor=#bac8d3;horizontalStack=0;resizeParent=1;resizeParentMax=0;resizeLast=0;collapsible=1;marginBottom=0;whiteSpace=wrap;html=1;sketch=1;hachureGap=4;jiggle=2;curveFitting=1;fontFamily=Architects Daughter;fontSource=https%3A%2F%2Ffonts.googleapis.com%2Fcss%3Ffamily%3DArchitects%2BDaughter;fontSize=14;labelBackgroundColor=none;strokeColor=#23445d;" parent="6UFjZa_Qjo73gYVkkpTL-10" vertex="1">
          <mxGeometry x="23" y="465" width="230" height="52" as="geometry" />
        </mxCell>
        <mxCell id="6UFjZa_Qjo73gYVkkpTL-7" value="&lt;font style=&quot;font-size: 13px;&quot;&gt;EffectDefinition (abstract) :&amp;nbsp;&lt;/font&gt;&lt;span style=&quot;font-size: 14px;&quot;&gt;IEffectDefinition&amp;nbsp;&lt;/span&gt;" style="swimlane;fontStyle=0;childLayout=stackLayout;horizontal=1;startSize=26;fillColor=#bac8d3;horizontalStack=0;resizeParent=1;resizeParentMax=0;resizeLast=0;collapsible=1;marginBottom=0;whiteSpace=wrap;html=1;sketch=1;hachureGap=4;jiggle=2;curveFitting=1;fontFamily=Architects Daughter;fontSource=https%3A%2F%2Ffonts.googleapis.com%2Fcss%3Ffamily%3DArchitects%2BDaughter;fontSize=16;labelBackgroundColor=none;strokeColor=#23445d;" parent="6UFjZa_Qjo73gYVkkpTL-10" vertex="1">
          <mxGeometry x="12" y="581" width="313" height="78" as="geometry" />
        </mxCell>
        <mxCell id="pfoFcTRtM2cgHrAYwK6Y-20" style="edgeStyle=orthogonalEdgeStyle;rounded=0;sketch=1;hachureGap=4;jiggle=2;curveFitting=1;orthogonalLoop=1;jettySize=auto;html=1;exitX=-0.024;exitY=0.123;exitDx=0;exitDy=0;entryX=1;entryY=0.5;entryDx=0;entryDy=0;strokeColor=#666666;fontFamily=Architects Daughter;fontSource=https%3A%2F%2Ffonts.googleapis.com%2Fcss%3Ffamily%3DArchitects%2BDaughter;fontSize=16;fontColor=default;endArrow=open;startSize=14;endSize=14;sourcePerimeterSpacing=8;targetPerimeterSpacing=8;fillColor=#f5f5f5;labelBackgroundColor=none;exitPerimeter=0;gradientColor=#b3b3b3;" parent="sM5seYUYF9-TsOFURJws-17" source="U2Sg24MLAsKOgwwXVquy-9" target="U2Sg24MLAsKOgwwXVquy-4" edge="1">
          <mxGeometry relative="1" as="geometry">
            <Array as="points">
              <mxPoint x="383" y="453" />
              <mxPoint x="383" y="728" />
            </Array>
          </mxGeometry>
        </mxCell>
        <mxCell id="6UFjZa_Qjo73gYVkkpTL-60" style="edgeStyle=orthogonalEdgeStyle;shape=connector;rounded=0;sketch=1;hachureGap=4;jiggle=2;curveFitting=1;orthogonalLoop=1;jettySize=auto;html=1;entryX=1;entryY=0.5;entryDx=0;entryDy=0;strokeColor=#666666;align=center;verticalAlign=middle;fontFamily=Architects Daughter;fontSource=https%3A%2F%2Ffonts.googleapis.com%2Fcss%3Ffamily%3DArchitects%2BDaughter;fontSize=16;fontColor=#393C56;fontStyle=1;labelBackgroundColor=none;startSize=14;endArrow=open;endSize=14;sourcePerimeterSpacing=8;targetPerimeterSpacing=8;fillColor=#f5f5f5;gradientColor=#b3b3b3;" parent="sM5seYUYF9-TsOFURJws-17" source="6UFjZa_Qjo73gYVkkpTL-7" target="6UFjZa_Qjo73gYVkkpTL-59" edge="1">
          <mxGeometry relative="1" as="geometry">
            <Array as="points">
              <mxPoint x="1231" y="1121" />
              <mxPoint x="331" y="1121" />
              <mxPoint x="331" y="780" />
            </Array>
          </mxGeometry>
        </mxCell>
        <mxCell id="Ik0o9rOlxrH9gnlxq-DT-124" value="" style="endArrow=block;dashed=1;endFill=0;endSize=12;html=1;rounded=0;sketch=1;hachureGap=4;jiggle=2;curveFitting=1;strokeColor=#666666;align=center;verticalAlign=middle;fontFamily=Architects Daughter;fontSource=https%3A%2F%2Ffonts.googleapis.com%2Fcss%3Ffamily%3DArchitects%2BDaughter;fontSize=16;fontColor=#393C56;fontStyle=1;labelBackgroundColor=none;edgeStyle=orthogonalEdgeStyle;sourcePerimeterSpacing=8;targetPerimeterSpacing=8;fillColor=#f5f5f5;gradientColor=#b3b3b3;exitX=0;exitY=0.25;exitDx=0;exitDy=0;entryX=1;entryY=0.25;entryDx=0;entryDy=0;" edge="1" parent="sM5seYUYF9-TsOFURJws-17" source="6UFjZa_Qjo73gYVkkpTL-7" target="6UFjZa_Qjo73gYVkkpTL-36">
          <mxGeometry width="160" relative="1" as="geometry">
            <mxPoint x="916" y="713" as="sourcePoint" />
            <mxPoint x="811" y="719" as="targetPoint" />
            <Array as="points">
              <mxPoint x="918" y="652" />
              <mxPoint x="918" y="654" />
            </Array>
          </mxGeometry>
        </mxCell>
        <mxCell id="Ik0o9rOlxrH9gnlxq-DT-125" value="implementetion" style="edgeLabel;html=1;align=center;verticalAlign=middle;resizable=0;points=[];sketch=1;hachureGap=4;jiggle=2;curveFitting=1;strokeColor=#4F6E3F;fontFamily=Architects Daughter;fontSource=https%3A%2F%2Ffonts.googleapis.com%2Fcss%3Ffamily%3DArchitects%2BDaughter;fontSize=16;fontColor=#393C56;fontStyle=1;labelBackgroundColor=none;fillColor=#d5e8d4;" vertex="1" connectable="0" parent="Ik0o9rOlxrH9gnlxq-DT-124">
          <mxGeometry x="0.1283" y="2" relative="1" as="geometry">
            <mxPoint x="25" y="-4" as="offset" />
          </mxGeometry>
        </mxCell>
        <mxCell id="sM5seYUYF9-TsOFURJws-18" value="Game Systems" style="swimlane;whiteSpace=wrap;html=1;sketch=1;hachureGap=4;jiggle=2;curveFitting=1;strokeColor=#6c8ebf;fontFamily=Architects Daughter;fontSource=https%3A%2F%2Ffonts.googleapis.com%2Fcss%3Ffamily%3DArchitects%2BDaughter;fontSize=20;fillColor=#dae8fc;startSize=33;movable=1;resizable=1;rotatable=1;deletable=1;editable=1;locked=0;connectable=1;swimlaneLine=1;" parent="1" vertex="1">
          <mxGeometry x="129" y="1699" width="1960" height="1923" as="geometry" />
        </mxCell>
        <mxCell id="Ik0o9rOlxrH9gnlxq-DT-33" value="Events" style="swimlane;fontStyle=0;childLayout=stackLayout;horizontal=1;startSize=26;horizontalStack=0;resizeParent=1;resizeParentMax=0;resizeLast=0;collapsible=1;marginBottom=0;whiteSpace=wrap;html=1;sketch=1;hachureGap=4;jiggle=2;curveFitting=1;fontFamily=Architects Daughter;fontSource=https%3A%2F%2Ffonts.googleapis.com%2Fcss%3Ffamily%3DArchitects%2BDaughter;fontSize=17;labelBackgroundColor=none;fillColor=#fff2cc;strokeColor=#d6b656;" vertex="1" parent="sM5seYUYF9-TsOFURJws-18">
          <mxGeometry x="505" y="227" width="492" height="78" as="geometry" />
        </mxCell>
        <mxCell id="Ik0o9rOlxrH9gnlxq-DT-37" value="+ onBuildingPlaceSelected" style="text;strokeColor=default;fillColor=none;align=left;verticalAlign=top;spacingLeft=4;spacingRight=4;overflow=hidden;rotatable=0;points=[[0,0.5],[1,0.5]];portConstraint=eastwest;whiteSpace=wrap;html=1;fontSize=17;fontFamily=Architects Daughter;labelBackgroundColor=none;fontColor=#393C56;sketch=1;curveFitting=1;jiggle=2;dashed=1;dashPattern=1 1;strokeWidth=0;" vertex="1" parent="Ik0o9rOlxrH9gnlxq-DT-33">
          <mxGeometry y="26" width="492" height="26" as="geometry" />
        </mxCell>
        <mxCell id="Ik0o9rOlxrH9gnlxq-DT-113" value="+ onBuildingConstructionSelected(BuildingType, BuildingPlace)" style="text;strokeColor=default;fillColor=none;align=left;verticalAlign=top;spacingLeft=4;spacingRight=4;overflow=hidden;rotatable=0;points=[[0,0.5],[1,0.5]];portConstraint=eastwest;whiteSpace=wrap;html=1;fontSize=17;fontFamily=Architects Daughter;labelBackgroundColor=none;fontColor=#393C56;sketch=1;curveFitting=1;jiggle=2;dashed=1;dashPattern=1 1;strokeWidth=0;" vertex="1" parent="Ik0o9rOlxrH9gnlxq-DT-33">
          <mxGeometry y="52" width="492" height="26" as="geometry" />
        </mxCell>
        <mxCell id="Ik0o9rOlxrH9gnlxq-DT-39" style="edgeStyle=orthogonalEdgeStyle;shape=connector;rounded=0;sketch=1;hachureGap=4;jiggle=2;curveFitting=1;orthogonalLoop=1;jettySize=auto;html=1;exitX=1;exitY=0.5;exitDx=0;exitDy=0;entryX=0;entryY=0.5;entryDx=0;entryDy=0;strokeColor=#666666;align=center;verticalAlign=middle;fontFamily=Architects Daughter;fontSource=https%3A%2F%2Ffonts.googleapis.com%2Fcss%3Ffamily%3DArchitects%2BDaughter;fontSize=16;fontColor=#393C56;fontStyle=1;labelBackgroundColor=none;startSize=14;endArrow=open;endSize=14;sourcePerimeterSpacing=8;targetPerimeterSpacing=8;fillColor=#f5f5f5;gradientColor=#b3b3b3;" edge="1" parent="sM5seYUYF9-TsOFURJws-18" source="Ik0o9rOlxrH9gnlxq-DT-5" target="Ik0o9rOlxrH9gnlxq-DT-37">
          <mxGeometry relative="1" as="geometry" />
        </mxCell>
        <mxCell id="Ik0o9rOlxrH9gnlxq-DT-43" value="" style="edgeStyle=orthogonalEdgeStyle;shape=connector;rounded=0;sketch=1;hachureGap=4;jiggle=2;curveFitting=1;orthogonalLoop=1;jettySize=auto;html=1;strokeColor=#666666;align=center;verticalAlign=middle;fontFamily=Architects Daughter;fontSource=https%3A%2F%2Ffonts.googleapis.com%2Fcss%3Ffamily%3DArchitects%2BDaughter;fontSize=16;fontColor=#393C56;fontStyle=1;labelBackgroundColor=none;startSize=14;endArrow=open;endSize=14;sourcePerimeterSpacing=8;targetPerimeterSpacing=8;fillColor=#f5f5f5;gradientColor=#b3b3b3;exitX=1;exitY=0.5;exitDx=0;exitDy=0;entryX=0;entryY=0.5;entryDx=0;entryDy=0;" edge="1" parent="sM5seYUYF9-TsOFURJws-18" source="Ik0o9rOlxrH9gnlxq-DT-37" target="Ik0o9rOlxrH9gnlxq-DT-46">
          <mxGeometry relative="1" as="geometry">
            <mxPoint x="724" y="318.00000000000045" as="sourcePoint" />
            <mxPoint x="956" y="233" as="targetPoint" />
          </mxGeometry>
        </mxCell>
        <mxCell id="Ik0o9rOlxrH9gnlxq-DT-49" value="UI" style="swimlane;whiteSpace=wrap;html=1;hachureGap=4;strokeColor=#10739e;fontFamily=Architects Daughter;fontSource=https%3A%2F%2Ffonts.googleapis.com%2Fcss%3Ffamily%3DArchitects%2BDaughter;fontSize=16;fillColor=#b1ddf0;labelBackgroundColor=none;dashed=1;dashPattern=1 4;glass=0;swimlaneLine=0;rounded=0;shadow=0;sketch=1;curveFitting=1;jiggle=2;" vertex="1" parent="sM5seYUYF9-TsOFURJws-18">
          <mxGeometry x="1091" y="81" width="455" height="494" as="geometry" />
        </mxCell>
        <mxCell id="Ik0o9rOlxrH9gnlxq-DT-44" value="BuildingMenuUI : MB&lt;span style=&quot;white-space: pre;&quot;&gt;&#x9;&lt;/span&gt;" style="swimlane;fontStyle=1;align=center;verticalAlign=top;childLayout=stackLayout;horizontal=1;startSize=40;horizontalStack=0;resizeParent=1;resizeParentMax=0;resizeLast=0;collapsible=1;marginBottom=0;whiteSpace=wrap;html=1;sketch=1;hachureGap=4;jiggle=2;curveFitting=1;strokeColor=#4F6E3F;fontFamily=Architects Daughter;fontSource=https%3A%2F%2Ffonts.googleapis.com%2Fcss%3Ffamily%3DArchitects%2BDaughter;fontSize=20;fillColor=#d5e8d4;labelBackgroundColor=none;" vertex="1" parent="Ik0o9rOlxrH9gnlxq-DT-49">
          <mxGeometry x="17" y="48" width="353" height="152" as="geometry" />
        </mxCell>
        <mxCell id="Ik0o9rOlxrH9gnlxq-DT-65" value="+ MenuOptions : List&amp;lt;BuildingMenuOptionUI&amp;gt;" style="text;strokeColor=#4F6E3F;fillColor=none;align=left;verticalAlign=top;spacingLeft=4;spacingRight=4;overflow=hidden;rotatable=0;points=[[0,0.5],[1,0.5]];portConstraint=eastwest;whiteSpace=wrap;html=1;fontSize=16;fontFamily=Architects Daughter;fontColor=#393C56;labelBackgroundColor=none;" vertex="1" parent="Ik0o9rOlxrH9gnlxq-DT-44">
          <mxGeometry y="40" width="353" height="26" as="geometry" />
        </mxCell>
        <mxCell id="Ik0o9rOlxrH9gnlxq-DT-45" value="" style="line;strokeWidth=1;fillColor=#d5e8d4;align=left;verticalAlign=middle;spacingTop=-1;spacingLeft=3;spacingRight=3;rotatable=0;labelPosition=right;points=[];portConstraint=eastwest;strokeColor=#4F6E3F;sketch=1;hachureGap=4;jiggle=2;curveFitting=1;fontFamily=Architects Daughter;fontSource=https%3A%2F%2Ffonts.googleapis.com%2Fcss%3Ffamily%3DArchitects%2BDaughter;fontSize=20;labelBackgroundColor=none;" vertex="1" parent="Ik0o9rOlxrH9gnlxq-DT-44">
          <mxGeometry y="66" width="353" height="8" as="geometry" />
        </mxCell>
        <mxCell id="Ik0o9rOlxrH9gnlxq-DT-109" value="+ initialize()" style="text;strokeColor=#4F6E3F;fillColor=none;align=left;verticalAlign=top;spacingLeft=4;spacingRight=4;overflow=hidden;rotatable=0;points=[[0,0.5],[1,0.5]];portConstraint=eastwest;whiteSpace=wrap;html=1;fontSize=16;fontFamily=Architects Daughter;fontColor=#393C56;labelBackgroundColor=none;" vertex="1" parent="Ik0o9rOlxrH9gnlxq-DT-44">
          <mxGeometry y="74" width="353" height="26" as="geometry" />
        </mxCell>
        <mxCell id="Ik0o9rOlxrH9gnlxq-DT-46" value="+ show(BuildingPlace)" style="text;strokeColor=#4F6E3F;fillColor=none;align=left;verticalAlign=top;spacingLeft=4;spacingRight=4;overflow=hidden;rotatable=0;points=[[0,0.5],[1,0.5]];portConstraint=eastwest;whiteSpace=wrap;html=1;fontSize=16;fontFamily=Architects Daughter;fontColor=#393C56;labelBackgroundColor=none;" vertex="1" parent="Ik0o9rOlxrH9gnlxq-DT-44">
          <mxGeometry y="100" width="353" height="26" as="geometry" />
        </mxCell>
        <mxCell id="Ik0o9rOlxrH9gnlxq-DT-66" value="+ hide()" style="text;strokeColor=#4F6E3F;fillColor=none;align=left;verticalAlign=top;spacingLeft=4;spacingRight=4;overflow=hidden;rotatable=0;points=[[0,0.5],[1,0.5]];portConstraint=eastwest;whiteSpace=wrap;html=1;fontSize=16;fontFamily=Architects Daughter;fontColor=#393C56;labelBackgroundColor=none;" vertex="1" parent="Ik0o9rOlxrH9gnlxq-DT-44">
          <mxGeometry y="126" width="353" height="26" as="geometry" />
        </mxCell>
        <mxCell id="Ik0o9rOlxrH9gnlxq-DT-67" value="BuildingMenuOptionUI : MB&lt;span style=&quot;white-space: pre;&quot;&gt;&#x9;&lt;/span&gt;" style="swimlane;fontStyle=1;align=center;verticalAlign=top;childLayout=stackLayout;horizontal=1;startSize=40;horizontalStack=0;resizeParent=1;resizeParentMax=0;resizeLast=0;collapsible=1;marginBottom=0;whiteSpace=wrap;html=1;sketch=1;hachureGap=4;jiggle=2;curveFitting=1;strokeColor=#4F6E3F;fontFamily=Architects Daughter;fontSource=https%3A%2F%2Ffonts.googleapis.com%2Fcss%3Ffamily%3DArchitects%2BDaughter;fontSize=20;fillColor=#d5e8d4;labelBackgroundColor=none;" vertex="1" parent="Ik0o9rOlxrH9gnlxq-DT-49">
          <mxGeometry x="20" y="220" width="351" height="100" as="geometry" />
        </mxCell>
        <mxCell id="Ik0o9rOlxrH9gnlxq-DT-68" value="+ buildingData : BuildingData" style="text;strokeColor=#4F6E3F;fillColor=none;align=left;verticalAlign=top;spacingLeft=4;spacingRight=4;overflow=hidden;rotatable=0;points=[[0,0.5],[1,0.5]];portConstraint=eastwest;whiteSpace=wrap;html=1;fontSize=16;fontFamily=Architects Daughter;fontColor=#393C56;labelBackgroundColor=none;" vertex="1" parent="Ik0o9rOlxrH9gnlxq-DT-67">
          <mxGeometry y="40" width="351" height="26" as="geometry" />
        </mxCell>
        <mxCell id="Ik0o9rOlxrH9gnlxq-DT-69" value="" style="line;strokeWidth=1;fillColor=#d5e8d4;align=left;verticalAlign=middle;spacingTop=-1;spacingLeft=3;spacingRight=3;rotatable=0;labelPosition=right;points=[];portConstraint=eastwest;strokeColor=#4F6E3F;sketch=1;hachureGap=4;jiggle=2;curveFitting=1;fontFamily=Architects Daughter;fontSource=https%3A%2F%2Ffonts.googleapis.com%2Fcss%3Ffamily%3DArchitects%2BDaughter;fontSize=20;labelBackgroundColor=none;" vertex="1" parent="Ik0o9rOlxrH9gnlxq-DT-67">
          <mxGeometry y="66" width="351" height="8" as="geometry" />
        </mxCell>
        <mxCell id="Ik0o9rOlxrH9gnlxq-DT-70" value="+ onClick()" style="text;strokeColor=#4F6E3F;fillColor=none;align=left;verticalAlign=top;spacingLeft=4;spacingRight=4;overflow=hidden;rotatable=0;points=[[0,0.5],[1,0.5]];portConstraint=eastwest;whiteSpace=wrap;html=1;fontSize=16;fontFamily=Architects Daughter;fontColor=#393C56;labelBackgroundColor=none;" vertex="1" parent="Ik0o9rOlxrH9gnlxq-DT-67">
          <mxGeometry y="74" width="351" height="26" as="geometry" />
        </mxCell>
        <mxCell id="Ik0o9rOlxrH9gnlxq-DT-72" style="edgeStyle=orthogonalEdgeStyle;shape=connector;rounded=0;sketch=1;hachureGap=4;jiggle=2;curveFitting=1;orthogonalLoop=1;jettySize=auto;html=1;exitX=1;exitY=0.25;exitDx=0;exitDy=0;entryX=1;entryY=0.5;entryDx=0;entryDy=0;strokeColor=#666666;align=center;verticalAlign=middle;fontFamily=Architects Daughter;fontSource=https%3A%2F%2Ffonts.googleapis.com%2Fcss%3Ffamily%3DArchitects%2BDaughter;fontSize=16;fontColor=#393C56;fontStyle=1;labelBackgroundColor=none;startSize=14;endArrow=open;endSize=14;sourcePerimeterSpacing=8;targetPerimeterSpacing=8;fillColor=#f5f5f5;gradientColor=#b3b3b3;" edge="1" parent="Ik0o9rOlxrH9gnlxq-DT-49" source="Ik0o9rOlxrH9gnlxq-DT-67" target="Ik0o9rOlxrH9gnlxq-DT-65">
          <mxGeometry relative="1" as="geometry" />
        </mxCell>
        <mxCell id="Ik0o9rOlxrH9gnlxq-DT-78" value="Objects" style="swimlane;whiteSpace=wrap;html=1;hachureGap=4;strokeColor=#10739e;fontFamily=Architects Daughter;fontSource=https%3A%2F%2Ffonts.googleapis.com%2Fcss%3Ffamily%3DArchitects%2BDaughter;fontSize=16;fillColor=#b1ddf0;labelBackgroundColor=none;dashed=1;dashPattern=1 4;glass=0;swimlaneLine=0;rounded=0;shadow=0;sketch=1;curveFitting=1;jiggle=2;startSize=23;" vertex="1" parent="sM5seYUYF9-TsOFURJws-18">
          <mxGeometry x="31" y="87" width="391" height="494" as="geometry" />
        </mxCell>
        <mxCell id="Ik0o9rOlxrH9gnlxq-DT-1" value="BuildingPlace : MB&lt;span style=&quot;white-space: pre;&quot;&gt;&#x9;&lt;/span&gt;" style="swimlane;fontStyle=1;align=center;verticalAlign=top;childLayout=stackLayout;horizontal=1;startSize=40;horizontalStack=0;resizeParent=1;resizeParentMax=0;resizeLast=0;collapsible=1;marginBottom=0;whiteSpace=wrap;html=1;sketch=1;hachureGap=4;jiggle=2;curveFitting=1;strokeColor=#4F6E3F;fontFamily=Architects Daughter;fontSource=https%3A%2F%2Ffonts.googleapis.com%2Fcss%3Ffamily%3DArchitects%2BDaughter;fontSize=20;fillColor=#d5e8d4;labelBackgroundColor=none;" vertex="1" parent="Ik0o9rOlxrH9gnlxq-DT-78">
          <mxGeometry x="31" y="38" width="311" height="100" as="geometry" />
        </mxCell>
        <mxCell id="Ik0o9rOlxrH9gnlxq-DT-4" value="" style="line;strokeWidth=1;fillColor=#d5e8d4;align=left;verticalAlign=middle;spacingTop=-1;spacingLeft=3;spacingRight=3;rotatable=0;labelPosition=right;points=[];portConstraint=eastwest;strokeColor=#4F6E3F;sketch=1;hachureGap=4;jiggle=2;curveFitting=1;fontFamily=Architects Daughter;fontSource=https%3A%2F%2Ffonts.googleapis.com%2Fcss%3Ffamily%3DArchitects%2BDaughter;fontSize=20;labelBackgroundColor=none;" vertex="1" parent="Ik0o9rOlxrH9gnlxq-DT-1">
          <mxGeometry y="40" width="311" height="8" as="geometry" />
        </mxCell>
        <mxCell id="Ik0o9rOlxrH9gnlxq-DT-5" value="+ onClick()" style="text;strokeColor=#4F6E3F;fillColor=none;align=left;verticalAlign=top;spacingLeft=4;spacingRight=4;overflow=hidden;rotatable=0;points=[[0,0.5],[1,0.5]];portConstraint=eastwest;whiteSpace=wrap;html=1;fontSize=16;fontFamily=Architects Daughter;fontColor=#393C56;labelBackgroundColor=none;" vertex="1" parent="Ik0o9rOlxrH9gnlxq-DT-1">
          <mxGeometry y="48" width="311" height="26" as="geometry" />
        </mxCell>
        <mxCell id="Ik0o9rOlxrH9gnlxq-DT-131" value="+ Enable(bool)" style="text;strokeColor=#4F6E3F;fillColor=none;align=left;verticalAlign=top;spacingLeft=4;spacingRight=4;overflow=hidden;rotatable=0;points=[[0,0.5],[1,0.5]];portConstraint=eastwest;whiteSpace=wrap;html=1;fontSize=16;fontFamily=Architects Daughter;fontColor=#393C56;labelBackgroundColor=none;" vertex="1" parent="Ik0o9rOlxrH9gnlxq-DT-1">
          <mxGeometry y="74" width="311" height="26" as="geometry" />
        </mxCell>
        <mxCell id="pfoFcTRtM2cgHrAYwK6Y-5" value="Building : MB" style="swimlane;fontStyle=1;align=center;verticalAlign=top;childLayout=stackLayout;horizontal=1;startSize=40;horizontalStack=0;resizeParent=1;resizeParentMax=0;resizeLast=0;collapsible=1;marginBottom=0;whiteSpace=wrap;html=1;sketch=1;hachureGap=4;jiggle=2;curveFitting=1;strokeColor=#4F6E3F;fontFamily=Architects Daughter;fontSource=https%3A%2F%2Ffonts.googleapis.com%2Fcss%3Ffamily%3DArchitects%2BDaughter;fontSize=20;fillColor=#d5e8d4;labelBackgroundColor=none;" parent="Ik0o9rOlxrH9gnlxq-DT-78" vertex="1">
          <mxGeometry x="24" y="215" width="311" height="126" as="geometry" />
        </mxCell>
        <mxCell id="pfoFcTRtM2cgHrAYwK6Y-6" value="+ Data : BuildingData" style="text;strokeColor=none;fillColor=none;align=left;verticalAlign=top;spacingLeft=4;spacingRight=4;overflow=hidden;rotatable=0;points=[[0,0.5],[1,0.5]];portConstraint=eastwest;whiteSpace=wrap;html=1;fontSize=16;fontFamily=Architects Daughter;fontColor=#393C56;labelBackgroundColor=none;" parent="pfoFcTRtM2cgHrAYwK6Y-5" vertex="1">
          <mxGeometry y="40" width="311" height="26" as="geometry" />
        </mxCell>
        <mxCell id="sM5seYUYF9-TsOFURJws-16" value="+ Commands : BuilderCommand" style="text;strokeColor=none;fillColor=none;align=left;verticalAlign=top;spacingLeft=4;spacingRight=4;overflow=hidden;rotatable=0;points=[[0,0.5],[1,0.5]];portConstraint=eastwest;whiteSpace=wrap;html=1;fontSize=16;fontFamily=Architects Daughter;fontColor=#393C56;labelBackgroundColor=none;" parent="pfoFcTRtM2cgHrAYwK6Y-5" vertex="1">
          <mxGeometry y="66" width="311" height="26" as="geometry" />
        </mxCell>
        <mxCell id="pfoFcTRtM2cgHrAYwK6Y-7" value="" style="line;strokeWidth=1;fillColor=none;align=left;verticalAlign=middle;spacingTop=-1;spacingLeft=3;spacingRight=3;rotatable=0;labelPosition=right;points=[];portConstraint=eastwest;strokeColor=#4F6E3F;sketch=1;hachureGap=4;jiggle=2;curveFitting=1;fontFamily=Architects Daughter;fontSource=https%3A%2F%2Ffonts.googleapis.com%2Fcss%3Ffamily%3DArchitects%2BDaughter;fontSize=20;fontColor=#393C56;labelBackgroundColor=none;" parent="pfoFcTRtM2cgHrAYwK6Y-5" vertex="1">
          <mxGeometry y="92" width="311" height="8" as="geometry" />
        </mxCell>
        <mxCell id="pfoFcTRtM2cgHrAYwK6Y-8" value="+ method(type): type" style="text;strokeColor=none;fillColor=none;align=left;verticalAlign=top;spacingLeft=4;spacingRight=4;overflow=hidden;rotatable=0;points=[[0,0.5],[1,0.5]];portConstraint=eastwest;whiteSpace=wrap;html=1;fontSize=16;fontFamily=Architects Daughter;fontColor=#393C56;labelBackgroundColor=none;" parent="pfoFcTRtM2cgHrAYwK6Y-5" vertex="1">
          <mxGeometry y="100" width="311" height="26" as="geometry" />
        </mxCell>
        <mxCell id="Ik0o9rOlxrH9gnlxq-DT-90" value="Services" style="swimlane;whiteSpace=wrap;html=1;hachureGap=4;strokeColor=#10739e;fontFamily=Architects Daughter;fontSource=https%3A%2F%2Ffonts.googleapis.com%2Fcss%3Ffamily%3DArchitects%2BDaughter;fontSize=16;fillColor=#b1ddf0;labelBackgroundColor=none;dashed=1;dashPattern=1 4;glass=0;swimlaneLine=0;rounded=0;shadow=0;sketch=1;curveFitting=1;jiggle=2;" vertex="1" parent="sM5seYUYF9-TsOFURJws-18">
          <mxGeometry x="817" y="1281" width="455" height="494" as="geometry" />
        </mxCell>
        <mxCell id="Ik0o9rOlxrH9gnlxq-DT-91" value="InGameDataService : class&lt;span style=&quot;white-space: pre;&quot;&gt;&#x9;&lt;/span&gt;" style="swimlane;fontStyle=0;childLayout=stackLayout;horizontal=1;startSize=26;horizontalStack=0;resizeParent=1;resizeParentMax=0;resizeLast=0;collapsible=1;marginBottom=0;whiteSpace=wrap;html=1;sketch=1;hachureGap=4;jiggle=2;curveFitting=1;fontFamily=Architects Daughter;fontSource=https%3A%2F%2Ffonts.googleapis.com%2Fcss%3Ffamily%3DArchitects%2BDaughter;fontSize=16;labelBackgroundColor=none;fillColor=#b1ddf0;strokeColor=#10739e;" vertex="1" parent="Ik0o9rOlxrH9gnlxq-DT-90">
          <mxGeometry x="17" y="48" width="353" height="138" as="geometry" />
        </mxCell>
        <mxCell id="Ik0o9rOlxrH9gnlxq-DT-103" style="edgeStyle=orthogonalEdgeStyle;shape=connector;rounded=0;sketch=1;hachureGap=4;jiggle=2;curveFitting=1;orthogonalLoop=1;jettySize=auto;html=1;exitX=1;exitY=0.5;exitDx=0;exitDy=0;entryX=1;entryY=0.5;entryDx=0;entryDy=0;strokeColor=#0C090D;align=center;verticalAlign=middle;fontFamily=Architects Daughter;fontSource=https%3A%2F%2Ffonts.googleapis.com%2Fcss%3Ffamily%3DArchitects%2BDaughter;fontSize=16;fontColor=#393C56;fontStyle=1;labelBackgroundColor=none;startSize=14;endArrow=open;endSize=14;sourcePerimeterSpacing=8;targetPerimeterSpacing=8;fillColor=#e1d5e7;" edge="1" parent="Ik0o9rOlxrH9gnlxq-DT-91" source="Ik0o9rOlxrH9gnlxq-DT-92" target="Ik0o9rOlxrH9gnlxq-DT-101">
          <mxGeometry relative="1" as="geometry">
            <Array as="points">
              <mxPoint x="376" y="73" />
              <mxPoint x="376" y="99" />
            </Array>
          </mxGeometry>
        </mxCell>
        <mxCell id="Ik0o9rOlxrH9gnlxq-DT-106" value="+ buildingsData : List&amp;lt;BuildingData&amp;gt;" style="text;strokeColor=none;fillColor=none;align=left;verticalAlign=top;spacingLeft=4;spacingRight=4;overflow=hidden;rotatable=0;points=[[0,0.5],[1,0.5]];portConstraint=eastwest;whiteSpace=wrap;html=1;fontSize=16;fontFamily=Architects Daughter;fontColor=#393C56;labelBackgroundColor=none;" vertex="1" parent="Ik0o9rOlxrH9gnlxq-DT-91">
          <mxGeometry y="26" width="353" height="26" as="geometry" />
        </mxCell>
        <mxCell id="Ik0o9rOlxrH9gnlxq-DT-93" value="" style="line;strokeWidth=1;fillColor=#d5e8d4;align=left;verticalAlign=middle;spacingTop=-1;spacingLeft=3;spacingRight=3;rotatable=0;labelPosition=right;points=[];portConstraint=eastwest;strokeColor=#54a9ce;sketch=1;hachureGap=4;jiggle=2;curveFitting=1;fontFamily=Architects Daughter;fontSource=https%3A%2F%2Ffonts.googleapis.com%2Fcss%3Ffamily%3DArchitects%2BDaughter;fontSize=20;labelBackgroundColor=none;" vertex="1" parent="Ik0o9rOlxrH9gnlxq-DT-91">
          <mxGeometry y="52" width="353" height="8" as="geometry" />
        </mxCell>
        <mxCell id="Ik0o9rOlxrH9gnlxq-DT-92" value="+ ctor()" style="text;strokeColor=none;fillColor=none;align=left;verticalAlign=top;spacingLeft=4;spacingRight=4;overflow=hidden;rotatable=0;points=[[0,0.5],[1,0.5]];portConstraint=eastwest;whiteSpace=wrap;html=1;fontSize=16;fontFamily=Architects Daughter;fontColor=#393C56;labelBackgroundColor=none;" vertex="1" parent="Ik0o9rOlxrH9gnlxq-DT-91">
          <mxGeometry y="60" width="353" height="26" as="geometry" />
        </mxCell>
        <mxCell id="Ik0o9rOlxrH9gnlxq-DT-101" value="+ loadData()&amp;nbsp; &lt;i&gt;*load data from resources&lt;/i&gt;" style="text;strokeColor=none;fillColor=none;align=left;verticalAlign=top;spacingLeft=4;spacingRight=4;overflow=hidden;rotatable=0;points=[[0,0.5],[1,0.5]];portConstraint=eastwest;whiteSpace=wrap;html=1;fontSize=16;fontFamily=Architects Daughter;fontColor=#393C56;labelBackgroundColor=none;" vertex="1" parent="Ik0o9rOlxrH9gnlxq-DT-91">
          <mxGeometry y="86" width="353" height="26" as="geometry" />
        </mxCell>
        <mxCell id="Ik0o9rOlxrH9gnlxq-DT-105" value="+ getAllBuildingData() : List&amp;lt;BuildingData&amp;gt;" style="text;strokeColor=none;fillColor=none;align=left;verticalAlign=top;spacingLeft=4;spacingRight=4;overflow=hidden;rotatable=0;points=[[0,0.5],[1,0.5]];portConstraint=eastwest;whiteSpace=wrap;html=1;fontSize=16;fontFamily=Architects Daughter;fontColor=#393C56;labelBackgroundColor=none;" vertex="1" parent="Ik0o9rOlxrH9gnlxq-DT-91">
          <mxGeometry y="112" width="353" height="26" as="geometry" />
        </mxCell>
        <mxCell id="Ik0o9rOlxrH9gnlxq-DT-110" style="edgeStyle=orthogonalEdgeStyle;shape=connector;rounded=0;sketch=1;hachureGap=4;jiggle=2;curveFitting=1;orthogonalLoop=1;jettySize=auto;html=1;exitX=1;exitY=0.5;exitDx=0;exitDy=0;entryX=1;entryY=0.5;entryDx=0;entryDy=0;strokeColor=#9673a6;align=center;verticalAlign=middle;fontFamily=Architects Daughter;fontSource=https%3A%2F%2Ffonts.googleapis.com%2Fcss%3Ffamily%3DArchitects%2BDaughter;fontSize=16;fontColor=#393C56;fontStyle=1;labelBackgroundColor=none;startSize=14;endArrow=open;endSize=14;sourcePerimeterSpacing=8;targetPerimeterSpacing=8;fillColor=#e1d5e7;" edge="1" parent="sM5seYUYF9-TsOFURJws-18" source="Ik0o9rOlxrH9gnlxq-DT-109" target="Ik0o9rOlxrH9gnlxq-DT-105">
          <mxGeometry relative="1" as="geometry">
            <Array as="points">
              <mxPoint x="1552" y="216" />
              <mxPoint x="1552" y="1454" />
            </Array>
          </mxGeometry>
        </mxCell>
        <mxCell id="Ik0o9rOlxrH9gnlxq-DT-112" value="" style="image;aspect=fixed;html=1;points=[];align=center;fontSize=12;image=img/lib/azure2/compute/Function_Apps.svg;sketch=1;hachureGap=4;jiggle=2;curveFitting=1;strokeColor=#4F6E3F;verticalAlign=top;fontFamily=Architects Daughter;fontSource=https%3A%2F%2Ffonts.googleapis.com%2Fcss%3Ffamily%3DArchitects%2BDaughter;fontColor=#393C56;fontStyle=1;labelBackgroundColor=none;fillColor=#d5e8d4;" vertex="1" parent="sM5seYUYF9-TsOFURJws-18">
          <mxGeometry x="727" y="179" width="37" height="32.65" as="geometry" />
        </mxCell>
        <mxCell id="Ik0o9rOlxrH9gnlxq-DT-114" style="edgeStyle=orthogonalEdgeStyle;shape=connector;rounded=0;sketch=1;hachureGap=4;jiggle=2;curveFitting=1;orthogonalLoop=1;jettySize=auto;html=1;exitX=0;exitY=0.5;exitDx=0;exitDy=0;entryX=1;entryY=0.5;entryDx=0;entryDy=0;strokeColor=#666666;align=center;verticalAlign=middle;fontFamily=Architects Daughter;fontSource=https%3A%2F%2Ffonts.googleapis.com%2Fcss%3Ffamily%3DArchitects%2BDaughter;fontSize=16;fontColor=#393C56;fontStyle=1;labelBackgroundColor=none;startSize=14;endArrow=open;endSize=14;sourcePerimeterSpacing=8;targetPerimeterSpacing=8;fillColor=#e1d5e7;" edge="1" parent="sM5seYUYF9-TsOFURJws-18" source="Ik0o9rOlxrH9gnlxq-DT-70" target="Ik0o9rOlxrH9gnlxq-DT-113">
          <mxGeometry relative="1" as="geometry" />
        </mxCell>
        <mxCell id="Ik0o9rOlxrH9gnlxq-DT-115" value="Spawners" style="swimlane;whiteSpace=wrap;html=1;hachureGap=4;strokeColor=#10739e;fontFamily=Architects Daughter;fontSource=https%3A%2F%2Ffonts.googleapis.com%2Fcss%3Ffamily%3DArchitects%2BDaughter;fontSize=16;fillColor=#b1ddf0;labelBackgroundColor=none;dashed=1;dashPattern=1 4;glass=0;swimlaneLine=0;rounded=0;shadow=0;sketch=1;curveFitting=1;jiggle=2;" vertex="1" parent="sM5seYUYF9-TsOFURJws-18">
          <mxGeometry x="361" y="733" width="455" height="494" as="geometry" />
        </mxCell>
        <mxCell id="Ik0o9rOlxrH9gnlxq-DT-116" value="BuildingSpawner : class" style="swimlane;fontStyle=0;childLayout=stackLayout;horizontal=1;startSize=26;horizontalStack=0;resizeParent=1;resizeParentMax=0;resizeLast=0;collapsible=1;marginBottom=0;whiteSpace=wrap;html=1;sketch=1;hachureGap=4;jiggle=2;curveFitting=1;fontFamily=Architects Daughter;fontSource=https%3A%2F%2Ffonts.googleapis.com%2Fcss%3Ffamily%3DArchitects%2BDaughter;fontSize=16;labelBackgroundColor=none;fillColor=#b1ddf0;strokeColor=#10739e;" vertex="1" parent="Ik0o9rOlxrH9gnlxq-DT-115">
          <mxGeometry x="17" y="48" width="353" height="138" as="geometry" />
        </mxCell>
        <mxCell id="Ik0o9rOlxrH9gnlxq-DT-118" value="+" style="text;strokeColor=#008fda;fillColor=none;align=left;verticalAlign=top;spacingLeft=4;spacingRight=4;overflow=hidden;rotatable=0;points=[[0,0.5],[1,0.5]];portConstraint=eastwest;whiteSpace=wrap;html=1;fontSize=16;fontFamily=Architects Daughter;fontColor=#393C56;labelBackgroundColor=none;" vertex="1" parent="Ik0o9rOlxrH9gnlxq-DT-116">
          <mxGeometry y="26" width="353" height="26" as="geometry" />
        </mxCell>
        <mxCell id="Ik0o9rOlxrH9gnlxq-DT-119" value="" style="line;strokeWidth=1;fillColor=#d5e8d4;align=left;verticalAlign=middle;spacingTop=-1;spacingLeft=3;spacingRight=3;rotatable=0;labelPosition=right;points=[];portConstraint=eastwest;strokeColor=#229dde;sketch=1;hachureGap=4;jiggle=2;curveFitting=1;fontFamily=Architects Daughter;fontSource=https%3A%2F%2Ffonts.googleapis.com%2Fcss%3Ffamily%3DArchitects%2BDaughter;fontSize=20;labelBackgroundColor=none;" vertex="1" parent="Ik0o9rOlxrH9gnlxq-DT-116">
          <mxGeometry y="52" width="353" height="8" as="geometry" />
        </mxCell>
        <mxCell id="Ik0o9rOlxrH9gnlxq-DT-120" value="+ ctor()" style="text;strokeColor=none;fillColor=none;align=left;verticalAlign=top;spacingLeft=4;spacingRight=4;overflow=hidden;rotatable=0;points=[[0,0.5],[1,0.5]];portConstraint=eastwest;whiteSpace=wrap;html=1;fontSize=16;fontFamily=Architects Daughter;fontColor=#393C56;labelBackgroundColor=none;" vertex="1" parent="Ik0o9rOlxrH9gnlxq-DT-116">
          <mxGeometry y="60" width="353" height="26" as="geometry" />
        </mxCell>
        <mxCell id="Ik0o9rOlxrH9gnlxq-DT-121" value="+ spawn(BuildingType,&amp;nbsp;&lt;span style=&quot;font-size: 17px;&quot;&gt;BuildingPlace&lt;/span&gt;)" style="text;strokeColor=none;fillColor=none;align=left;verticalAlign=top;spacingLeft=4;spacingRight=4;overflow=hidden;rotatable=0;points=[[0,0.5],[1,0.5]];portConstraint=eastwest;whiteSpace=wrap;html=1;fontSize=16;fontFamily=Architects Daughter;fontColor=#393C56;labelBackgroundColor=none;" vertex="1" parent="Ik0o9rOlxrH9gnlxq-DT-116">
          <mxGeometry y="86" width="353" height="26" as="geometry" />
        </mxCell>
        <mxCell id="Ik0o9rOlxrH9gnlxq-DT-122" value="+ getAllBuildingData() : List&amp;lt;BuildingData&amp;gt;" style="text;strokeColor=none;fillColor=none;align=left;verticalAlign=top;spacingLeft=4;spacingRight=4;overflow=hidden;rotatable=0;points=[[0,0.5],[1,0.5]];portConstraint=eastwest;whiteSpace=wrap;html=1;fontSize=16;fontFamily=Architects Daughter;fontColor=#393C56;labelBackgroundColor=none;" vertex="1" parent="Ik0o9rOlxrH9gnlxq-DT-116">
          <mxGeometry y="112" width="353" height="26" as="geometry" />
        </mxCell>
        <mxCell id="Ik0o9rOlxrH9gnlxq-DT-123" style="edgeStyle=orthogonalEdgeStyle;shape=connector;rounded=0;sketch=1;hachureGap=4;jiggle=2;curveFitting=1;orthogonalLoop=1;jettySize=auto;html=1;exitX=0;exitY=0.5;exitDx=0;exitDy=0;entryX=0;entryY=0.5;entryDx=0;entryDy=0;strokeColor=#666666;align=center;verticalAlign=middle;fontFamily=Architects Daughter;fontSource=https%3A%2F%2Ffonts.googleapis.com%2Fcss%3Ffamily%3DArchitects%2BDaughter;fontSize=16;fontColor=#393C56;fontStyle=1;labelBackgroundColor=none;startSize=14;endArrow=open;endSize=14;sourcePerimeterSpacing=8;targetPerimeterSpacing=8;fillColor=#f5f5f5;gradientColor=#b3b3b3;" edge="1" parent="sM5seYUYF9-TsOFURJws-18" source="Ik0o9rOlxrH9gnlxq-DT-113" target="Ik0o9rOlxrH9gnlxq-DT-121">
          <mxGeometry relative="1" as="geometry">
            <Array as="points">
              <mxPoint x="453" y="292" />
              <mxPoint x="453" y="661" />
              <mxPoint x="328" y="661" />
              <mxPoint x="328" y="880" />
            </Array>
          </mxGeometry>
        </mxCell>
        <mxCell id="Ik0o9rOlxrH9gnlxq-DT-132" style="edgeStyle=orthogonalEdgeStyle;shape=connector;rounded=1;sketch=1;hachureGap=4;jiggle=2;curveFitting=1;orthogonalLoop=1;jettySize=auto;html=1;exitX=1;exitY=0.5;exitDx=0;exitDy=0;entryX=1;entryY=0.5;entryDx=0;entryDy=0;strokeColor=#666666;align=center;verticalAlign=middle;fontFamily=Architects Daughter;fontSource=https%3A%2F%2Ffonts.googleapis.com%2Fcss%3Ffamily%3DArchitects%2BDaughter;fontSize=16;fontColor=#393C56;fontStyle=1;labelBackgroundColor=none;startSize=14;endArrow=open;endSize=14;sourcePerimeterSpacing=8;targetPerimeterSpacing=8;fillColor=#f5f5f5;gradientColor=#b3b3b3;curved=0;" edge="1" parent="sM5seYUYF9-TsOFURJws-18" source="Ik0o9rOlxrH9gnlxq-DT-121" target="Ik0o9rOlxrH9gnlxq-DT-131">
          <mxGeometry relative="1" as="geometry">
            <Array as="points">
              <mxPoint x="751" y="880" />
              <mxPoint x="751" y="689" />
              <mxPoint x="411" y="689" />
              <mxPoint x="411" y="212" />
            </Array>
          </mxGeometry>
        </mxCell>
        <mxCell id="Ik0o9rOlxrH9gnlxq-DT-133" value="&lt;font style=&quot;font-size: 18px;&quot;&gt;FALSE&lt;/font&gt;" style="edgeLabel;html=1;align=center;verticalAlign=middle;resizable=0;points=[];sketch=1;hachureGap=4;jiggle=2;curveFitting=1;strokeColor=#4F6E3F;fontFamily=Architects Daughter;fontSource=https%3A%2F%2Ffonts.googleapis.com%2Fcss%3Ffamily%3DArchitects%2BDaughter;fontSize=16;fontColor=#393C56;fontStyle=1;labelBackgroundColor=none;fillColor=#d5e8d4;" vertex="1" connectable="0" parent="Ik0o9rOlxrH9gnlxq-DT-132">
          <mxGeometry x="-0.5154" y="2" relative="1" as="geometry">
            <mxPoint x="-106" y="-2" as="offset" />
          </mxGeometry>
        </mxCell>
        <mxCell id="Ik0o9rOlxrH9gnlxq-DT-76" style="edgeStyle=orthogonalEdgeStyle;shape=connector;rounded=0;sketch=1;hachureGap=4;jiggle=2;curveFitting=1;orthogonalLoop=1;jettySize=auto;html=1;entryX=0;entryY=0.5;entryDx=0;entryDy=0;strokeColor=#9673a6;align=center;verticalAlign=middle;fontFamily=Architects Daughter;fontSource=https%3A%2F%2Ffonts.googleapis.com%2Fcss%3Ffamily%3DArchitects%2BDaughter;fontSize=16;fontColor=#393C56;fontStyle=1;labelBackgroundColor=none;startSize=14;endArrow=open;endSize=14;sourcePerimeterSpacing=8;targetPerimeterSpacing=8;fillColor=#e1d5e7;" edge="1" parent="1" source="U2Sg24MLAsKOgwwXVquy-1" target="pfoFcTRtM2cgHrAYwK6Y-6">
          <mxGeometry relative="1" as="geometry">
            <Array as="points">
              <mxPoint x="60" y="926" />
              <mxPoint x="60" y="2054" />
            </Array>
          </mxGeometry>
        </mxCell>
        <mxCell id="Ik0o9rOlxrH9gnlxq-DT-77" style="edgeStyle=orthogonalEdgeStyle;shape=connector;rounded=0;sketch=1;hachureGap=4;jiggle=2;curveFitting=1;orthogonalLoop=1;jettySize=auto;html=1;entryX=0;entryY=0.5;entryDx=0;entryDy=0;strokeColor=#9673a6;align=center;verticalAlign=middle;fontFamily=Architects Daughter;fontSource=https%3A%2F%2Ffonts.googleapis.com%2Fcss%3Ffamily%3DArchitects%2BDaughter;fontSize=16;fontColor=#393C56;fontStyle=1;labelBackgroundColor=none;startSize=14;endArrow=open;endSize=14;sourcePerimeterSpacing=8;targetPerimeterSpacing=8;fillColor=#e1d5e7;" edge="1" parent="1" source="U2Sg24MLAsKOgwwXVquy-1" target="Ik0o9rOlxrH9gnlxq-DT-68">
          <mxGeometry relative="1" as="geometry">
            <Array as="points">
              <mxPoint x="31" y="926" />
              <mxPoint x="31" y="2323" />
              <mxPoint x="1098" y="2323" />
              <mxPoint x="1098" y="2054" />
            </Array>
          </mxGeometry>
        </mxCell>
        <mxCell id="Ik0o9rOlxrH9gnlxq-DT-107" style="edgeStyle=orthogonalEdgeStyle;shape=connector;rounded=0;sketch=1;hachureGap=4;jiggle=2;curveFitting=1;orthogonalLoop=1;jettySize=auto;html=1;exitX=0;exitY=0.5;exitDx=0;exitDy=0;entryX=0;entryY=0.5;entryDx=0;entryDy=0;strokeColor=#9673a6;align=center;verticalAlign=middle;fontFamily=Architects Daughter;fontSource=https%3A%2F%2Ffonts.googleapis.com%2Fcss%3Ffamily%3DArchitects%2BDaughter;fontSize=16;fontColor=#393C56;fontStyle=1;labelBackgroundColor=none;startSize=14;endArrow=open;endSize=14;sourcePerimeterSpacing=8;targetPerimeterSpacing=8;fillColor=#e1d5e7;" edge="1" parent="1" source="U2Sg24MLAsKOgwwXVquy-4" target="Ik0o9rOlxrH9gnlxq-DT-106">
          <mxGeometry relative="1" as="geometry">
            <Array as="points">
              <mxPoint x="102" y="926" />
              <mxPoint x="102" y="3067" />
            </Array>
          </mxGeometry>
        </mxCell>
      </root>
    </mxGraphModel>
  </diagram>
</mxfile>
